<?xml version="1.0" encoding="UTF-8" standalone="no"?>
<!-- Created with Inkscape (http://www.inkscape.org/) -->

<svg
   xmlns:osb="http://www.openswatchbook.org/uri/2009/osb"
   xmlns:dc="http://purl.org/dc/elements/1.1/"
   xmlns:cc="http://creativecommons.org/ns#"
   xmlns:rdf="http://www.w3.org/1999/02/22-rdf-syntax-ns#"
   xmlns:svg="http://www.w3.org/2000/svg"
   xmlns="http://www.w3.org/2000/svg"
   xmlns:xlink="http://www.w3.org/1999/xlink"
   xmlns:sodipodi="http://sodipodi.sourceforge.net/DTD/sodipodi-0.dtd"
   xmlns:inkscape="http://www.inkscape.org/namespaces/inkscape"
   version="1.1"
   id="svg2"
   xml:space="preserve"
   width="877.17334"
   height="942.26666"
   viewBox="0 0 877.17334 942.26666"
   sodipodi:docname="pokeball.svg"
   inkscape:version="0.92.3 (2405546, 2018-03-11)"><metadata
     id="metadata8"><rdf:RDF><cc:Work
         rdf:about=""><dc:format>image/svg+xml</dc:format><dc:type
           rdf:resource="http://purl.org/dc/dcmitype/StillImage" /><dc:title></dc:title></cc:Work></rdf:RDF></metadata><defs
     id="defs6"><linearGradient
       id="linearGradient1266"
       osb:paint="solid"><stop
         style="stop-color:#ffc900;stop-opacity:1;"
         offset="0"
         id="stop1264" /></linearGradient><linearGradient
       inkscape:collect="always"
       id="linearGradient1221"><stop
         style="stop-color:#990000;stop-opacity:1;"
         offset="0"
         id="stop1217" /><stop
         style="stop-color:#990000;stop-opacity:0;"
         offset="1"
         id="stop1219" /></linearGradient><linearGradient
       inkscape:collect="always"
       xlink:href="#linearGradient1221"
       id="linearGradient1223"
       x1="322.721"
       y1="-284.59966"
       x2="958.77253"
       y2="-284.59966"
       gradientUnits="userSpaceOnUse"
       gradientTransform="matrix(0.62592651,0,0,0.6259265,302.38815,-78.463921)" /><radialGradient
       inkscape:collect="always"
       xlink:href="#linearGradient1266"
       id="radialGradient1270"
       cx="528.25823"
       cy="-269.88499"
       fx="528.25823"
       fy="-269.88499"
       r="64.839292"
       gradientTransform="matrix(1,0,0,0.22906809,0,-208.06295)"
       gradientUnits="userSpaceOnUse" /></defs><sodipodi:namedview
     pagecolor="#ffffff"
     bordercolor="#666666"
     borderopacity="1"
     objecttolerance="10"
     gridtolerance="10"
     guidetolerance="10"
     inkscape:pageopacity="0"
     inkscape:pageshadow="2"
     inkscape:window-width="1366"
     inkscape:window-height="684"
     id="namedview4"
     showgrid="false"
     inkscape:zoom="0.50091977"
     inkscape:cx="314.21"
     inkscape:cy="506.33917"
     inkscape:window-x="0"
     inkscape:window-y="28"
     inkscape:window-maximized="1"
     inkscape:current-layer="g10" /><g
     id="g10"
     inkscape:groupmode="layer"
     inkscape:label="ink_ext_XXXXXX"
     transform="matrix(1.3333333,0,0,-1.3333333,0,942.26667)"><path
       inkscape:connector-curvature="0"
       id="path170"
       style="fill:#100f0d;fill-opacity:1;fill-rule:evenodd;stroke:none;stroke-width:0.12822358"
       d="m 29.124175,476.84152 c 198.002185,0 399.567615,0 597.571125,0 18.37158,-58.32026 10.65649,-135.42084 -5.35421,-171.00715 -80.9897,0 -164.22573,-50.07223 -244.25805,-50.07223 -115.62498,0 -227.89044,50.07223 -344.901597,50.07223 -18.098607,54.72965 -26.223805,115.40825 -3.057268,171.00715" /><path
       inkscape:connector-curvature="0"
       id="path172"
       style="fill:#2e2d2d;fill-opacity:1;fill-rule:evenodd;stroke:none;stroke-width:0.12822358"
       d="M 29.124175,476.84152 H 513.96112 C 500.92645,377.48729 431.12189,294.63162 335.94839,257.72661 234.68296,266.97106 135.27243,305.83437 32.181443,305.83437 14.082836,360.56402 5.957638,421.24262 29.124175,476.84152" /><path
       inkscape:connector-curvature="0"
       id="path174"
       style="fill:#dbdbd8;fill-opacity:1;fill-rule:evenodd;stroke:none;stroke-width:0.12822358"
       d="M 642.63112,336.68281 C 609.9732,203.33137 481.36944,103.78578 327.68038,103.78578 166.67304,103.78578 33.198439,213.0327 8.7256297,355.95085 116.06164,316.56897 266.12353,295.05864 400.7992,296.98977 c 91.98441,1.3187 178.15121,13.96116 241.83192,39.69304" /><path
       inkscape:connector-curvature="0"
       id="path176"
       style="fill:#f0f0f0;fill-opacity:1;fill-rule:evenodd;stroke:none;stroke-width:0.12822358"
       d="m 16.057543,319.77083 c -3.525977,11.43735 -6.3502294,23.15129 -8.3981686,35.106 C 114.99538,315.49494 265.05727,293.98461 399.73294,295.91574 l 5.7164,0.10127 c -49.66465,-36.88894 -112.42656,-58.9191 -180.67585,-58.9191 -81.83791,0 -155.784965,31.67963 -208.715947,82.67296" /><path
       inkscape:connector-curvature="0"
       id="path178"
       style="fill:#eb1c24;fill-opacity:1;fill-rule:evenodd;stroke:none;stroke-width:0.12685473"
       d="m 324.35787,683.30331 c 170.65444,0 310.15388,-122.71766 320.10698,-277.51869 C 600.36472,371.36317 504.32153,354.96486 396.06568,353.42642 256.82538,351.44737 101.54086,375.55129 5.385286,418.8261 22.090581,567.42467 158.51999,683.30331 324.35787,683.30331" /><path
       inkscape:connector-curvature="0"
       id="path182"
       style="fill:#100f0d;fill-opacity:1;fill-rule:evenodd;stroke:none;stroke-width:0.12822358"
       d="m 454.68657,445.66816 c 61.99494,0 109.02045,-48.64488 105.02975,-108.64931 -3.98937,-60.00321 -57.4836,-108.65055 -119.47987,-108.65055 -61.99493,0 -109.01911,48.64734 -105.02975,108.65055 3.99203,60.00443 57.48626,108.64931 119.47987,108.64931" /><path
       inkscape:connector-curvature="0"
       id="path186"
       style="fill:#dbdbd8;fill-opacity:1;fill-rule:evenodd;stroke:none;stroke-width:0.12822358"
       d="m 456.50948,394.61432 c 33.91493,0 59.63942,-26.61104 57.45697,-59.43646 -2.1851,-32.82545 -31.45019,-59.43771 -65.36246,-59.43771 -33.9136,0 -59.64072,26.61226 -57.45696,59.43771 2.18377,32.82542 31.4462,59.43646 65.36245,59.43646" /><path
       inkscape:connector-curvature="0"
       id="path188"
       style="fill:#f0f0f0;fill-opacity:1;fill-rule:evenodd;stroke:none;stroke-width:0.12822358"
       d="m 456.50683,394.61555 c 10.5047,0 20.21846,-2.55221 28.56337,-7.05158 -19.40088,-36.08761 -47.06013,-67.59313 -80.65414,-92.31869 -9.19178,10.54834 -14.29167,24.56012 -13.26903,39.92886 2.18643,32.82792 31.44354,59.44141 65.3598,59.44141" /><path
       inkscape:connector-curvature="0"
       id="path190"
       style="fill:#f25067;fill-opacity:1;fill-rule:evenodd;stroke:none;stroke-width:0.12822358"
       d="M 279.69383,662.97418 C 301.47554,641.96638 259.32089,589.21233 197.47642,534.07398 135.6293,478.93811 77.5132,442.29732 55.734147,463.30511 c -21.780382,21.00657 1.01998,91.70875 62.864453,146.84586 61.84447,55.13711 139.31483,73.82977 161.09523,52.82321" /><path
       inkscape:connector-curvature="0"
       id="path194"
       style="fill:#ffffff;fill-opacity:1;fill-rule:evenodd;stroke:none;stroke-width:0.12822358"
       d="m 327.18936,81.007567 c 127.32944,0 230.55491,-15.147482 230.55491,-33.832987 0,-18.68266 -103.22547,-33.831752 -230.55491,-33.831752 -127.3321,0 -230.558903,15.149092 -230.558903,33.831752 0,18.685505 103.226803,33.832987 230.558903,33.832987" /><path
       inkscape:connector-curvature="0"
       id="path196"
       style="fill:#feffff;fill-opacity:1;fill-rule:evenodd;stroke:none;stroke-width:0.12822358"
       d="m 327.18936,79.695045 c 122.38933,0 221.6108,-14.562348 221.6108,-32.520465 0,-17.959104 -99.22147,-32.52034 -221.6108,-32.52034 -122.39201,0 -221.61479,14.561236 -221.61479,32.52034 0,17.958117 99.22278,32.520465 221.61479,32.520465" /><path
       inkscape:connector-curvature="0"
       id="path198"
       style="fill:#fdfdfd;fill-opacity:1;fill-rule:evenodd;stroke:none;stroke-width:0.12822358"
       d="m 327.18936,78.382522 c 117.44925,0 212.66668,-13.974738 212.66668,-31.207942 0,-17.234191 -95.21743,-31.206457 -212.66668,-31.206457 -117.45189,0 -212.67067,13.972266 -212.67067,31.206457 0,17.233204 95.21878,31.207942 212.67067,31.207942" /><path
       inkscape:connector-curvature="0"
       id="path200"
       style="fill:#fcfcfc;fill-opacity:1;fill-rule:evenodd;stroke:none;stroke-width:0.12822358"
       d="m 327.18936,77.069987 c 112.50914,0 203.72124,-13.385638 203.72124,-29.895407 0,-16.509772 -91.2121,-29.895539 -203.72124,-29.895539 -112.51179,0 -203.72523,13.385767 -203.72523,29.895539 0,16.509769 91.21344,29.895407 203.72523,29.895407" /><path
       inkscape:connector-curvature="0"
       id="path202"
       style="fill:#fbfcfc;fill-opacity:1;fill-rule:evenodd;stroke:none;stroke-width:0.12822358"
       d="m 327.18936,75.757465 c 107.56903,0 194.77713,-12.796674 194.77713,-28.582885 0,-15.782389 -87.2081,-28.58178 -194.77713,-28.58178 -107.57169,0 -194.78112,12.799391 -194.78112,28.58178 0,15.786211 87.20943,28.582885 194.78112,28.582885" /><path
       inkscape:connector-curvature="0"
       id="path204"
       style="fill:#fafafa;fill-opacity:1;fill-rule:evenodd;stroke:none;stroke-width:0.12822358"
       d="m 327.18936,74.444952 c 102.6316,0 185.83169,-12.209075 185.83169,-27.270372 0,-15.057476 -83.20009,-27.270369 -185.83169,-27.270369 -102.63293,0 -185.83701,12.212893 -185.83701,27.270369 0,15.061297 83.20408,27.270372 185.83701,27.270372" /><path
       inkscape:connector-curvature="0"
       id="path206"
       style="fill:#fafafa;fill-opacity:1;fill-rule:evenodd;stroke:none;stroke-width:0.12822358"
       d="m 327.18936,73.132429 c 97.6915,0 176.88891,-11.623805 176.88891,-25.957849 0,-14.332562 -79.19741,-25.956485 -176.88891,-25.956485 -97.69283,0 -176.89023,11.623923 -176.89023,25.956485 0,14.334044 79.1974,25.957849 176.89023,25.957849" /><path
       inkscape:connector-curvature="0"
       id="path208"
       style="fill:#f8f9f9;fill-opacity:1;fill-rule:evenodd;stroke:none;stroke-width:0.12822358"
       d="m 327.18936,71.818664 c 92.75139,0 167.94346,-11.034461 167.94346,-24.644084 0,-13.607648 -75.19207,-24.645074 -167.94346,-24.645074 -92.75271,0 -167.94745,11.037426 -167.94745,24.645074 0,13.609623 75.19474,24.644084 167.94745,24.644084" /><path
       inkscape:connector-curvature="0"
       id="path212"
       style="fill:#f6f6f6;fill-opacity:1;fill-rule:evenodd;stroke:none;stroke-width:0.12822358"
       d="m 327.18936,69.193617 c 82.8712,0 150.05257,-9.859364 150.05257,-22.019037 0,-12.158318 -67.18137,-22.020273 -150.05257,-22.020273 -82.87386,0 -150.05922,9.861955 -150.05922,22.020273 0,12.159673 67.18536,22.019037 150.05922,22.019037" /><path
       inkscape:connector-curvature="0"
       id="path214"
       style="fill:#f5f6f6;fill-opacity:1;fill-rule:evenodd;stroke:none;stroke-width:0.12822358"
       d="m 327.18936,67.882326 c 77.9311,0 141.10978,-9.272986 141.10978,-20.707746 0,-11.434885 -63.17868,-20.706392 -141.10978,-20.706392 -77.93508,0 -141.11245,9.271507 -141.11245,20.706392 0,11.43476 63.17737,20.707746 141.11245,20.707746" /><path
       inkscape:connector-curvature="0"
       id="path216"
       style="fill:#f5f5f4;fill-opacity:1;fill-rule:evenodd;stroke:none;stroke-width:0.12822358"
       d="m 327.18936,66.568571 c 72.99099,0 132.16567,-8.683652 132.16567,-19.393991 0,-10.709848 -59.17468,-19.393991 -132.16567,-19.393991 -72.99498,0 -132.16834,8.684143 -132.16834,19.393991 0,10.710339 59.17336,19.393991 132.16834,19.393991" /><path
       inkscape:connector-curvature="0"
       id="path218"
       style="fill:#f3f3f3;fill-opacity:1;fill-rule:evenodd;stroke:none;stroke-width:0.12822358"
       d="m 327.18936,65.257157 c 68.05089,0 123.22156,-8.096165 123.22156,-18.082577 0,-9.986418 -55.17067,-18.081221 -123.22156,-18.081221 -68.05487,0 -123.22289,8.094803 -123.22289,18.081221 0,9.986412 55.16802,18.082577 123.22289,18.082577" /><path
       inkscape:connector-curvature="0"
       id="path220"
       style="fill:#f1f1f0;fill-opacity:1;fill-rule:evenodd;stroke:none;stroke-width:0.12822358"
       d="m 327.18936,63.943771 c 63.1108,0 114.27879,-7.5072 114.27879,-16.769191 0,-9.261505 -51.16799,-16.76882 -114.27879,-16.76882 -63.11478,0 -114.28011,7.507315 -114.28011,16.76882 0,9.261991 51.16533,16.769191 114.28011,16.769191" /><path
       inkscape:connector-curvature="0"
       id="path222"
       style="fill:#f0f0f0;fill-opacity:1;fill-rule:evenodd;stroke:none;stroke-width:0.12822358"
       d="m 327.18936,62.632357 c 58.17069,0 105.33201,-6.920822 105.33201,-15.457777 0,-8.537086 -47.16132,-15.456419 -105.33201,-15.456419 -58.17469,0 -105.336,6.919333 -105.336,15.456419 0,8.536955 47.16131,15.457777 105.336,15.457777" /><path
       inkscape:connector-curvature="0"
       id="path224"
       style="fill:#eeefef;fill-opacity:1;fill-rule:evenodd;stroke:none;stroke-width:0.12822358"
       d="m 327.18936,61.318602 c 53.23059,0 96.3879,-6.33198 96.3879,-14.144022 0,-7.812172 -43.15731,-14.144019 -96.3879,-14.144019 -53.2359,0 -96.39055,6.331847 -96.39055,14.144019 0,7.812042 43.15465,14.144022 96.39055,14.144022" /><path
       inkscape:connector-curvature="0"
       id="path226"
       style="fill:#ededed;fill-opacity:1;fill-rule:evenodd;stroke:none;stroke-width:0.12822358"
       d="m 327.18936,60.007188 c 48.29315,0 87.44379,-5.74399 87.44379,-12.832608 0,-7.087259 -39.15064,-12.831125 -87.44379,-12.831125 -48.29581,0 -87.44511,5.743866 -87.44511,12.831125 0,7.088618 39.1493,12.832608 87.44511,12.832608" /><path
       inkscape:connector-curvature="0"
       id="path228"
       style="fill:#ececec;fill-opacity:1;fill-rule:evenodd;stroke:none;stroke-width:0.12822358"
       d="m 327.18936,58.693299 c 43.35305,0 78.49701,-5.154522 78.49701,-11.518719 0,-6.362223 -35.14396,-11.518724 -78.49701,-11.518724 -43.3557,0 -78.501,5.156501 -78.501,11.518724 0,6.364197 35.1453,11.518719 78.501,11.518719" /><path
       inkscape:connector-curvature="0"
       id="path230"
       style="fill:#eaebe9;fill-opacity:1;fill-rule:evenodd;stroke:none;stroke-width:0.12822358"
       d="m 327.18936,57.380899 c 38.41295,0 69.55423,-4.569509 69.55423,-10.206319 0,-5.635457 -31.14128,-10.206323 -69.55423,-10.206323 -38.41561,0 -69.55822,4.570866 -69.55822,10.206323 0,5.63681 31.14261,10.206319 69.55822,10.206319" /><text
       xml:space="preserve"
       style="font-style:normal;font-variant:normal;font-weight:bold;font-stretch:normal;font-size:30px;line-height:1.25;font-family:Uroob;-inkscape-font-specification:'Uroob, Bold';font-variant-ligatures:normal;font-variant-caps:normal;font-variant-numeric:normal;font-feature-settings:normal;text-align:start;letter-spacing:0px;word-spacing:0px;writing-mode:lr-tb;text-anchor:start;fill:#000000;fill-opacity:1;stroke:none;stroke-width:0.75"
       x="387.78668"
       y="-329.39407"
       id="text1250"
       transform="scale(1,-1)"><tspan
         sodipodi:role="line"
         id="tspan1248"
         x="387.78668"
         y="-306.54251"
         style="stroke-width:0.75" /></text>
<text
       xml:space="preserve"
       style="font-style:normal;font-variant:normal;font-weight:bold;font-stretch:normal;font-size:47.49353027px;line-height:1.25;font-family:Uroob;-inkscape-font-specification:'Uroob, Bold';font-variant-ligatures:normal;font-variant-caps:normal;font-variant-numeric:normal;font-feature-settings:normal;text-align:start;letter-spacing:0px;word-spacing:0px;writing-mode:lr-tb;text-anchor:start;fill:#ffc900;fill-opacity:1;stroke:#060000;stroke-width:1.13703096;stroke-miterlimit:4;stroke-dasharray:none;stroke-opacity:1"
       x="455.98062"
       y="-275.73792"
       id="text1262"
       transform="scale(0.86186978,-1.1602681)"><tspan
         sodipodi:role="line"
         id="tspan1260"
         x="455.98062"
         y="-275.73792"
         style="fill:#ffc900;fill-opacity:1;stroke:#060000;stroke-width:1.13703096;stroke-miterlimit:4;stroke-dasharray:none;stroke-opacity:1">REINICIAR</tspan></text>
</g></svg>